<?xml version="1.0" encoding="UTF-8"?>
<svg version="1.1" xmlns="http://www.w3.org/2000/svg" width="512" height="512">
<path d="M0 0 C2.27345953 0.0054661 4.54690858 0.00781548 6.82037354 0.00987244 C31.58251094 0.04470904 56.21067681 0.71063113 80.8526001 3.31785583 C81.56559265 3.39282288 82.27858521 3.46778992 83.01318359 3.54502869 C144.60858028 10.11958973 144.60858028 10.11958973 163.8526001 25.75535583 C168.44030786 31.63335641 169.38530691 37.00401791 169.2901001 44.25535583 C169.28107666 45.08655945 169.27205322 45.91776306 169.26275635 46.77415466 C168.74756641 65.52671062 161.26680915 82.36448672 148.8526001 96.31785583 C148.30088135 96.9997699 147.7491626 97.68168396 147.1807251 98.38426208 C120.08052323 131.35617436 70.97435564 144.90949905 30.38824463 149.49339294 C-25.69924987 154.88847575 -87.3537085 145.15819812 -131.96624756 108.69871521 C-147.16600648 95.8625092 -158.37420859 79.81707186 -163.1473999 60.31785583 C-163.71249268 60.2980365 -164.27758545 60.27821716 -164.85980225 60.25779724 C-167.41447987 60.16267347 -169.96832531 60.05294526 -172.5223999 59.94285583 C-173.41185303 59.91191833 -174.30130615 59.88098083 -175.2177124 59.84910583 C-176.06849365 59.81043396 -176.9192749 59.77176208 -177.7958374 59.73191833 C-178.58135986 59.70049744 -179.36688232 59.66907654 -180.1762085 59.63670349 C-182.1473999 59.31785583 -182.1473999 59.31785583 -184.1473999 57.31785583 C-184.70717213 52.05599689 -184.70717213 52.05599689 -182.87860107 49.64476013 C-180.77184116 48.03000338 -179.76117548 47.96566541 -177.13568115 48.02488708 C-176.37835693 48.03455505 -175.62103271 48.04422302 -174.84075928 48.05418396 C-174.05507568 48.07932068 -173.26939209 48.1044574 -172.4598999 48.13035583 C-171.26397217 48.15065857 -171.26397217 48.15065857 -170.04388428 48.17137146 C-168.07810023 48.20668495 -166.11266408 48.26049137 -164.1473999 48.31785583 C-164.1473999 46.66785583 -164.1473999 45.01785583 -164.1473999 43.31785583 C-172.3973999 43.31785583 -180.6473999 43.31785583 -189.1473999 43.31785583 C-189.6423999 48.26785583 -189.6423999 48.26785583 -190.1473999 53.31785583 C-192.5108077 60.70350521 -197.43011582 64.79568441 -204.1473999 68.31785583 C-207.70286824 69.50301195 -210.56760384 69.46678244 -214.32171631 69.49485779 C-215.04896912 69.50142899 -215.77622192 69.50800018 -216.5255127 69.51477051 C-218.93333037 69.53448515 -221.34108559 69.54616457 -223.7489624 69.55613708 C-224.57345257 69.56021261 -225.39794273 69.56428814 -226.24741745 69.56848717 C-230.61495462 69.58934428 -234.98246044 69.60364518 -239.35003662 69.61302185 C-243.84563093 69.62406032 -248.34072673 69.65843125 -252.8361454 69.69819355 C-256.30560173 69.72443652 -259.77494093 69.73272067 -263.24448776 69.73630333 C-264.90057094 69.74115277 -266.55664946 69.7527196 -268.21263504 69.77134132 C-278.01748955 69.87470742 -286.57043379 69.91722355 -294.48724365 63.38816833 C-300.13238018 56.51462801 -301.62955488 51.20779363 -301.46380615 42.29051208 C-300.73911702 35.48201291 -297.34483475 30.66919663 -292.1473999 26.31785583 C-285.96742037 22.11262839 -280.77888321 21.19923203 -273.40447998 21.15672302 C-272.41798462 21.14927567 -272.41798462 21.14927567 -271.41156006 21.14167786 C-269.24667288 21.12713497 -267.08185905 21.12026629 -264.91693115 21.11473083 C-263.80066125 21.11048977 -263.80066125 21.11048977 -262.66184044 21.10616302 C-258.72106957 21.09119964 -254.78033502 21.0819531 -250.83953857 21.07762146 C-246.79257794 21.07215123 -242.7459562 21.04814592 -238.69910145 21.01964951 C-235.56673755 21.00091284 -232.43445336 20.99581163 -229.30203819 20.99428558 C-227.81147097 20.99128167 -226.32090437 20.98333073 -224.83039284 20.9701004 C-204.98955632 20.80660203 -204.98955632 20.80660203 -199.42652893 25.89051819 C-198.96316635 26.40536774 -198.49980377 26.92021729 -198.0223999 27.45066833 C-193.22065743 31.98533497 -186.54466459 31.28413964 -180.33197021 31.20994568 C-178.14944148 31.19287181 -175.97733787 31.25053959 -173.7958374 31.31394958 C-166.39811786 31.51795448 -166.39811786 31.51795448 -159.81732178 28.6025238 C-158.02936091 26.52655318 -158.02936091 26.52655318 -156.54193115 24.29588318 C-148.23595624 12.51454412 -121.4027643 9.99105338 -108.40325928 7.6325531 C-72.61173993 1.5257884 -36.24851933 -0.09091596 0 0 Z M-11.52972412 11.37205505 C-85.21731339 9.94945237 -85.21731339 9.94945237 -151.1473999 33.31785583 C-151.10959692 35.69019195 -151.10959692 35.69019195 -150.1473999 38.31785583 C-145.59803844 41.91913886 -140.99142229 43.64405983 -135.4598999 45.25535583 C-134.59179688 45.50914001 -133.72369385 45.76292419 -132.82928467 46.0243988 C-109.80081489 52.49200342 -85.89540938 55.06914317 -62.1473999 57.31785583 C-60.90571045 57.43789978 -59.664021 57.55794373 -58.38470459 57.68162537 C2.9754498 63.2833483 69.17112433 61.88572452 129.4151001 48.31785583 C130.41299561 48.09315613 131.41089111 47.86845642 132.43902588 47.63694763 C146.39646498 44.35328655 146.39646498 44.35328655 156.8526001 35.31785583 C145.09907878 20.08180968 111.9559592 18.9880808 94.45928955 16.65232849 C67.3780191 13.28972699 40.12733123 11.75491302 12.8526001 11.31785583 C11.89756592 11.30125916 10.94253174 11.28466248 9.95855713 11.26756287 C2.79221645 11.15992823 -4.36410134 11.2572313 -11.52972412 11.37205505 Z M-287.1473999 37.31785583 C-289.07798285 40.14068117 -289.79217289 42.92601081 -290.1473999 46.31785583 C-288.77495701 51.55029434 -286.74470035 54.47190794 -282.1473999 57.31785583 C-278.37128118 58.30167774 -274.79952901 58.44947146 -270.90765381 58.46311951 C-269.66931793 58.46949936 -268.43098206 58.47587921 -267.15512085 58.48245239 C-265.81140177 58.48398133 -264.46768216 58.48509515 -263.1239624 58.48582458 C-261.73540208 58.48904119 -260.34684209 58.49240556 -258.95828247 58.49591064 C-256.05158706 58.50188737 -253.14492133 58.50375204 -250.23822021 58.50315857 C-246.52733404 58.50305703 -242.81663953 58.51670756 -239.10579872 58.53393078 C-236.23862853 58.54509001 -233.3715041 58.54707658 -230.50431442 58.54654884 C-229.13687861 58.54772311 -227.76944139 58.5521136 -226.40202713 58.55988121 C-214.69458184 58.8608706 -214.69458184 58.8608706 -204.2723999 54.25535583 C-201.45019729 50.35407576 -200.71671955 47.10600796 -201.1473999 42.31785583 C-203.33403014 37.77639303 -205.66495228 35.51128051 -210.1473999 33.31785583 C-213.42726357 32.85926346 -213.42726357 32.85926346 -217.02972412 32.9138031 C-217.70196014 32.90693985 -218.37419617 32.9000766 -219.06680298 32.89300537 C-221.2787822 32.87477408 -223.49004949 32.87856993 -225.7020874 32.88426208 C-227.24759144 32.87969784 -228.79309345 32.87439154 -230.33859253 32.86837769 C-233.57491306 32.85945333 -236.81098674 32.8618611 -240.04730225 32.87181091 C-244.18217118 32.8832882 -248.31618452 32.86310558 -252.45094109 32.83389378 C-255.64241903 32.81549033 -258.83369361 32.81583261 -262.02521133 32.8215313 C-263.54895349 32.82168407 -265.07270981 32.81567627 -266.59640121 32.80323982 C-277.59182306 32.52714578 -277.59182306 32.52714578 -287.1473999 37.31785583 Z M-152.1473999 50.31785583 C-150.87576579 69.71027601 -139.71339967 85.83516003 -125.652771 98.58421326 C-103.89899807 117.43499905 -75.74818135 128.23790399 -47.8973999 134.13035583 C-46.97684814 134.32524597 -46.05629639 134.52013611 -45.10784912 134.72093201 C-29.4195721 137.8374353 -13.97911899 138.69586852 1.9776001 138.63035583 C2.92447693 138.62820068 3.87135376 138.62604553 4.84692383 138.62382507 C19.03237068 138.57206538 32.91327839 138.18335949 46.8526001 135.31785583 C47.85839111 135.11386169 48.86418213 134.90986755 49.90045166 134.69969177 C63.99326093 131.75422175 77.575182 127.89920173 90.8526001 122.31785583 C91.58414307 122.01122009 92.31568604 121.70458435 93.06939697 121.38865662 C118.91266485 110.34975854 142.38629186 92.61449534 153.8526001 66.31785583 C155.80020423 60.91946317 157.01637929 56.07059979 156.8526001 50.31785583 C153.61715739 51.37956409 150.40664092 52.48084842 147.20806885 53.64988708 C69.39266445 81.67289351 -34.30277857 76.00150183 -144.1473999 53.31785583 C-146.15378637 52.33073206 -148.15589414 51.33466693 -150.1473999 50.31785583 C-150.8073999 50.31785583 -151.4673999 50.31785583 -152.1473999 50.31785583 Z " fill="#000000" transform="translate(322.14739990234375,83.68214416503906)"/>
<path d="M0 0 C0.97078995 0.33086609 1.9415799 0.66173218 2.94178772 1.00262451 C7.98076503 2.45628133 13.01749267 2.27910502 18.22436523 2.25878906 C19.33419769 2.2622937 20.44403015 2.26579834 21.5874939 2.26940918 C25.24459141 2.2781887 28.90149437 2.27239016 32.55859375 2.265625 C35.10775286 2.26697283 37.65691172 2.26891434 40.20606995 2.27142334 C45.54471525 2.27436957 50.88329133 2.2702853 56.22192383 2.26074219 C62.37777546 2.24986471 68.53349451 2.25338122 74.68934292 2.264395 C80.63044671 2.27459573 86.57150964 2.27347616 92.51262093 2.26763153 C95.03194256 2.26629983 97.55126759 2.26792591 100.07058525 2.27259064 C103.59589392 2.27768537 107.12095029 2.26990371 110.64624023 2.25878906 C111.68181564 2.26283752 112.71739105 2.26688599 113.78434753 2.27105713 C119.55121858 2.23747651 124.4626402 1.61504587 130 0 C133.86322129 -0.4933135 137.14493666 -0.34202533 140.8125 1.125 C143.75761336 3.64938288 144.75947331 5.27841993 146 9 C146.08085532 11.07278988 146.10086493 13.14846112 146.07421875 15.22265625 C146.05814575 16.84506226 146.05814575 16.84506226 146.04174805 18.50024414 C146.02797119 19.32516357 146.01419434 20.15008301 146 21 C147.03294189 20.97905273 148.06588379 20.95810547 149.13012695 20.93652344 C153.01214387 20.86338171 156.89410168 20.8179348 160.77661133 20.78027344 C162.44761442 20.760325 164.11854924 20.73315599 165.78930664 20.69824219 C178.87101553 20.43198771 189.52731356 21.25106484 199.99609375 30.015625 C208.23955878 38.17874436 212.06756209 48.56705373 212.15774536 60.05436707 C212.15886322 60.83733658 212.15998108 61.62030609 212.16113281 62.42700195 C212.16609772 63.26344238 212.17106262 64.09988281 212.17617798 64.96166992 C212.19074688 67.72054883 212.19759267 70.47937024 212.203125 73.23828125 C212.20888063 75.16253154 212.21463831 77.08678183 212.22039795 79.0110321 C212.23089283 83.04340888 212.23674544 87.0757658 212.24023438 91.1081543 C212.24571699 96.26283046 212.26974653 101.41724222 212.29820633 106.57183552 C212.31687385 110.54651139 212.32204049 114.52112407 212.32357025 118.49584007 C212.32658783 120.39555495 212.33458599 122.29526894 212.34775543 124.19494057 C212.36490273 126.85843391 212.36291467 129.52128758 212.35644531 132.18481445 C212.3656601 132.96171127 212.37487488 133.73860809 212.3843689 134.53904724 C212.33850526 140.59860446 211.34509903 146.41450379 207.1328125 151.05859375 C206.47023438 151.51363281 205.80765625 151.96867188 205.125 152.4375 C204.13886719 153.14712891 204.13886719 153.14712891 203.1328125 153.87109375 C198.72143147 156.2060555 194.2786383 156.08783218 189.37890625 156 C188.11369141 156.00128906 186.84847656 156.00257813 185.54492188 156.00390625 C182.89366533 156.0013057 180.24225322 155.96752959 177.59179688 155.90234375 C170.65738563 155.73830993 170.65738563 155.73830993 164.87646484 158.96704102 C163.27566045 161.32060338 163.27566045 161.32060338 162.14233398 163.77954102 C159.84885178 168.23759202 155.69785674 170.33868011 151.171875 172.1015625 C144.00066948 174.1328153 136.46399727 174.10578316 129.625 171 C124.82048013 168.24896171 121.02116985 164.64724292 118 160 C117.67 158.68 117.34 157.36 117 156 C81.03 156 45.06 156 8 156 C7.67 157.32 7.34 158.64 7 160 C2.83324219 166.40941645 -2.68217746 170.77815416 -10 173 C-18.62941399 174.29335197 -25.89420061 173.18934911 -33 168 C-36.93398513 164.36807588 -39.81956019 161.27391151 -41 156 C-41.75095947 156.01047363 -42.50191895 156.02094727 -43.27563477 156.03173828 C-46.70455529 156.07351891 -50.13342207 156.09939622 -53.5625 156.125 C-54.74392578 156.14175781 -55.92535156 156.15851563 -57.14257812 156.17578125 C-71.24415572 156.25478168 -71.24415572 156.25478168 -76.75 151.75 C-81.27265844 146.22230635 -82.44512139 141.5774076 -82.40405273 134.53881836 C-82.41091599 133.71026337 -82.41777924 132.88170837 -82.42485046 132.02804565 C-82.44309573 129.29846874 -82.43928149 126.56946839 -82.43359375 123.83984375 C-82.43815927 121.92899897 -82.44346594 120.01815584 -82.44947815 118.10731506 C-82.45840681 114.1018304 -82.45599198 110.09654508 -82.44604492 106.09106445 C-82.43460315 100.98944982 -82.45469418 95.88853232 -82.48396206 90.78700924 C-82.50243167 86.83783172 -82.50200949 82.88881756 -82.49632454 78.93960762 C-82.49617238 77.06077668 -82.50212832 75.1819339 -82.51461601 73.30314445 C-82.60080971 58.19899419 -81.56769515 44.83915354 -71 33 C-62.44155246 24.86399869 -53.12416497 20.81597602 -41.390625 20.90234375 C-40.66381531 20.9037587 -39.93700562 20.90517365 -39.18817139 20.90663147 C-36.87540506 20.91221208 -34.56273688 20.92476096 -32.25 20.9375 C-30.67838682 20.94251751 -29.10677211 20.94707998 -27.53515625 20.95117188 C-23.69006657 20.96217515 -19.8450499 20.97942639 -16 21 C-16.02030273 20.17508057 -16.04060547 19.35016113 -16.06152344 18.50024414 C-16.08520996 16.87783813 -16.08520996 16.87783813 -16.109375 15.22265625 C-16.12967773 14.15023682 -16.14998047 13.07781738 -16.17089844 11.97290039 C-15.88553957 7.00887907 -13.49190668 4.59847144 -10.25 1.125 C-6.89456239 -0.55271881 -3.63749112 -0.4771496 0 0 Z M-4 12 C-4 14.97 -4 17.94 -4 21 C41.54 21 87.08 21 134 21 C134 18.03 134 15.06 134 12 C132.76254532 12.16233124 131.52509064 12.32466248 130.25013733 12.49191284 C124.49487176 13.12720791 118.78270562 13.1401721 112.99780273 13.12939453 C111.8291568 13.13114685 110.66051086 13.13289917 109.45645142 13.13470459 C105.6154835 13.13908532 101.77456209 13.13619862 97.93359375 13.1328125 C95.25277144 13.13348658 92.57195051 13.1344561 89.89112854 13.13571167 C84.28198752 13.13752578 78.67285971 13.13514674 73.0637207 13.13037109 C66.59544137 13.12492728 60.12719356 13.12669506 53.65891498 13.1321975 C48.0858281 13.13674711 42.51275066 13.13737022 36.93966252 13.13475883 C33.61958882 13.13320656 30.29953304 13.13337098 26.97945976 13.13629532 C23.27721922 13.1388411 19.57503881 13.13495416 15.87280273 13.12939453 C14.78426498 13.13141876 13.69572723 13.13344299 12.57420349 13.13552856 C6.95374841 13.11993104 1.55925214 12.83938294 -4 12 Z M-63 42 C-68.46117843 49.47319154 -70.14791231 55.03509106 -70.16113281 64.20922852 C-70.16609772 65.03404724 -70.17106262 65.85886597 -70.17617798 66.7086792 C-70.19076209 69.43209673 -70.19759356 72.15545612 -70.203125 74.87890625 C-70.20887733 76.77172345 -70.21463505 78.66454062 -70.22039795 80.55735779 C-70.23089571 84.5225349 -70.23674712 88.48769181 -70.24023438 92.45288086 C-70.24573188 97.53969815 -70.26979172 102.62624948 -70.29820633 107.71298313 C-70.3168005 111.6205474 -70.32203647 115.528047 -70.32357025 119.43565178 C-70.32660206 121.31158854 -70.33464831 123.18752402 -70.34775543 125.06341743 C-70.36475688 127.68254227 -70.3629509 130.30100883 -70.35644531 132.92016602 C-70.3656601 133.69790878 -70.37487488 134.47565155 -70.3843689 135.27696228 C-70.42410864 139.2340349 -70.42410864 139.2340349 -68.75611538 142.69877869 C-66.52867481 144.34923581 -65.29207498 144.37675005 -62.53466129 144.38031673 C-61.61502191 144.38875668 -60.69538252 144.39719662 -59.74787527 144.40589231 C-58.23009668 144.39687724 -58.23009668 144.39687724 -56.68165588 144.38768005 C-55.07108296 144.39575836 -55.07108296 144.39575836 -53.42797321 144.40399987 C-49.81197467 144.41836498 -46.19633781 144.41115455 -42.58032227 144.40405273 C-39.99526676 144.40975182 -37.41021378 144.41671427 -34.82516479 144.42485046 C-28.52158303 144.44206905 -22.2181008 144.44287215 -15.91450161 144.43763756 C-10.79207563 144.43360023 -5.66967913 144.4350342 -0.54725456 144.44038582 C0.18110408 144.44113424 0.90946273 144.44188266 1.65989285 144.44265376 C3.13943633 144.4441852 4.6189798 144.44572355 6.09852327 144.44726873 C19.98150916 144.46100489 33.86443874 144.45554831 47.74742336 144.44408352 C60.45454414 144.43415034 73.16151933 144.44709125 85.86861765 144.47101771 C98.90909022 144.49538732 111.94949492 144.50502184 124.98998982 144.49836498 C132.31411889 144.49486794 139.63813596 144.49713665 146.96224785 144.51461601 C153.84788553 144.53084473 160.73324005 144.52618968 167.61886978 144.50731087 C170.15051913 144.50360998 172.6821889 144.50677673 175.2138195 144.51719666 C178.66109658 144.53030532 182.10743638 144.51894822 185.55467224 144.50120544 C186.56429392 144.51081045 187.57391559 144.52041546 188.61413187 144.53031152 C193.95045318 144.52413429 193.95045318 144.52413429 198.62108707 142.20138168 C200.72144275 138.84824428 200.55711814 135.53578221 200.51757812 131.70239258 C200.5245874 130.86770447 200.53159668 130.03301636 200.53881836 129.17303467 C200.55642368 126.41319502 200.54476151 123.65438141 200.53125 120.89453125 C200.53394546 118.97124536 200.53782834 117.0479608 200.54284668 115.12467957 C200.54874622 111.09039355 200.5401688 107.05646165 200.52148438 103.0222168 C200.4987712 97.8685579 200.51176645 92.71573577 200.53577423 87.56210804 C200.55028541 83.58733413 200.54560058 79.61275576 200.53526306 75.63797569 C200.53260646 73.73910103 200.53582774 71.84020824 200.54518127 69.94135475 C200.55542609 67.27529147 200.53973297 64.61054613 200.51757812 61.94458008 C200.52972351 60.78227119 200.52972351 60.78227119 200.54211426 59.59648132 C200.43146511 52.35064184 197.8004181 46.75358062 193.875 40.75 C186.11785115 33.33011849 177.45915847 31.8488055 167.15866089 31.85955811 C166.26785202 31.85658698 165.37704315 31.85361586 164.45924008 31.8505547 C161.47395652 31.84188248 158.48871313 31.84036069 155.50341797 31.83886719 C153.36291926 31.83423792 151.22242137 31.82921311 149.08192444 31.82382202 C143.26555204 31.81070529 137.44919118 31.80425431 131.6328063 31.79981136 C127.99722864 31.79687907 124.36165411 31.79277393 120.72607803 31.78830719 C109.34629515 31.77463329 97.96651946 31.76496648 86.58672893 31.7611053 C73.459926 31.75662668 60.33322731 31.73908734 47.20645607 31.7101047 C37.0542482 31.6884695 26.90206962 31.67840001 16.74983895 31.67706418 C10.68922233 31.67601735 4.62870372 31.67013542 -1.43188858 31.65224457 C-7.13643312 31.6357325 -12.84080632 31.63362369 -18.54536629 31.64238358 C-20.63385414 31.6431523 -22.72235132 31.63883299 -24.81081581 31.62892532 C-45.73940225 31.30473352 -45.73940225 31.30473352 -63 42 Z M-27 156 C-22.4100573 159.67195416 -19.75310688 161.49432545 -14 161 C-11.14130021 159.95294642 -8.58453301 158.60158561 -6 157 C-6 156.67 -6 156.34 -6 156 C-12.93 156 -19.86 156 -27 156 Z M132 156 C136.24349719 160.24349719 137.17526453 160.75587737 142.671875 161.18359375 C146.5342883 160.87900747 148.86305844 159.20253344 152 157 C152 156.67 152 156.34 152 156 C145.4 156 138.8 156 132 156 Z " fill="#000000" transform="translate(262,255)"/>
<path d="M0 0 C5.22216454 5.22216454 7.33105361 14.04738838 7.5625 21.25 C7.13816432 29.73671362 3.75851541 36.14171156 -2.0390625 42.26953125 C-8.36642614 47.8532406 -15.07608158 48.68950865 -23.34375 48.46484375 C-29.79509949 47.64464013 -37.29258816 45.70741184 -42 41 C-46.81631006 31.48413891 -49.26397709 21.60197813 -46.1484375 11.140625 C-42.89721166 3.84195475 -37.52345123 -1.69043962 -30.1875 -4.9375 C-19.56504791 -8.29086233 -9.38848926 -5.26671349 0 0 Z M-31 10 C-34.45412183 14.20095898 -35.79820695 17.55158757 -36 23 C-35.06592578 25.17127043 -35.06592578 25.17127043 -34 27 C-30.82530062 23.88307091 -27.66164608 20.75516454 -24.5 17.625 C-23.14068359 16.29082031 -23.14068359 16.29082031 -21.75390625 14.9296875 C-20.89667969 14.07890625 -20.03945313 13.228125 -19.15625 12.3515625 C-18.36025391 11.56604004 -17.56425781 10.78051758 -16.74414062 9.97119141 C-14.77911402 8.18903221 -14.77911402 8.18903221 -15 6 C-21.49805178 5.53768802 -25.92052149 5.40428135 -31 10 Z M-8.97119141 17.74414062 C-10.1494751 18.93813477 -10.1494751 18.93813477 -11.3515625 20.15625 C-12.20234375 21.01347656 -13.053125 21.87070312 -13.9296875 22.75390625 C-14.81914062 23.66011719 -15.70859375 24.56632812 -16.625 25.5 C-17.5221875 26.40621094 -18.419375 27.31242187 -19.34375 28.24609375 C-21.56701538 30.49301089 -23.78549657 32.74445216 -26 35 C-21.93463505 37.29009641 -19.58143848 37.10586446 -15 36 C-10.24748378 33.483962 -7.3422539 30.86468118 -5 26 C-4.68784985 22.63683382 -4.76052622 19.36593708 -5 16 C-7.18903221 15.77911402 -7.18903221 15.77911402 -8.97119141 17.74414062 Z " fill="#000000" transform="translate(347,322)"/>
<path d="M0 0 C2.9375 0.5 2.9375 0.5 4.875 1.5625 C6.61576251 4.73683164 5.75121587 7.05515 4.9375 10.5 C3.27451939 12.7556692 1.77093904 14.5534889 -0.1875 16.5 C-0.69176514 17.02126465 -1.19603027 17.5425293 -1.71557617 18.07958984 C-2.71392718 19.10819392 -3.71823153 20.13106028 -4.72900391 21.14746094 C-5.79780303 22.23152303 -6.83265201 23.3490129 -7.85546875 24.4765625 C-12.96590207 30.02052872 -19.25561607 34.1595717 -25.44873047 38.39453125 C-26.81966184 39.33365035 -28.17875248 40.29001755 -29.53515625 41.25 C-33.45557357 43.90893429 -36.30018602 45.3860119 -41.0625 44.5 C-42.9375 43.375 -42.9375 43.375 -44.0625 41.5 C-44.39453125 38.58984375 -44.39453125 38.58984375 -44.0625 35.5 C-42.33203125 33.69921875 -42.33203125 33.69921875 -39.875 32.1875 C-38.50021484 31.29804688 -38.50021484 31.29804688 -37.09765625 30.390625 C-36.09605469 29.76671875 -35.09445312 29.1428125 -34.0625 28.5 C-22.94340438 21.41777349 -12.90378495 13.13701566 -4.8515625 2.609375 C-3.0625 0.5 -3.0625 0.5 0 0 Z " fill="#000000" transform="translate(456.0625,147.5)"/>
</svg>
